<svg width="24" height="24" viewBox="0 0 24 24" fill="none" xmlns="http://www.w3.org/2000/svg">
<circle cx="11.9998" cy="12" r="9.00375" stroke="#737380" stroke-width="1.5" stroke-linecap="round" stroke-linejoin="round"/>
<path d="M11.0332 14.3806C11.0332 13.8337 11.0996 13.3982 11.2324 13.074C11.3652 12.7498 11.6074 12.4314 11.959 12.1189C12.3145 11.8025 12.5508 11.5466 12.668 11.3513C12.7852 11.1521 12.8438 10.9431 12.8438 10.7244C12.8438 10.0642 12.5391 9.73413 11.9297 9.73413C11.6406 9.73413 11.4082 9.82397 11.2324 10.0037C11.0605 10.1794 10.9707 10.4236 10.9629 10.7361H9.26367C9.27148 9.98999 9.51172 9.40601 9.98438 8.98413C10.4609 8.56226 11.1094 8.35132 11.9297 8.35132C12.7578 8.35132 13.4004 8.55249 13.8574 8.95483C14.3145 9.35327 14.543 9.91772 14.543 10.6482C14.543 10.9802 14.4688 11.2947 14.3203 11.5916C14.1719 11.8845 13.9121 12.2107 13.541 12.5701L13.0664 13.0212C12.7695 13.3064 12.5996 13.6404 12.5566 14.0232L12.5332 14.3806H11.0332ZM10.8633 16.1794C10.8633 15.9177 10.9512 15.7029 11.127 15.5349C11.3066 15.363 11.5352 15.2771 11.8125 15.2771C12.0898 15.2771 12.3164 15.363 12.4922 15.5349C12.6719 15.7029 12.7617 15.9177 12.7617 16.1794C12.7617 16.4373 12.6738 16.6501 12.498 16.8181C12.3262 16.9861 12.0977 17.0701 11.8125 17.0701C11.5273 17.0701 11.2969 16.9861 11.1211 16.8181C10.9492 16.6501 10.8633 16.4373 10.8633 16.1794Z" fill="#737380"/>
</svg>
